# xmcd
#
# Track frame offsets:
#	150
#	11980
#	21924
#	30789
#	40189
#	49897
#	62509
#	74475
#	83391
#	91291
#	102007
#	111464
#	123603
#	135790
#	149959
#	162204
#	170223
#	181930
#	193415
#	205220
#	217322
#	228097
#	239662
#	251383
#	260621
#	271951
#
# Disc length: 3758 seconds
#
# Revision: 0
# Processed by: cddbd v1.4PL0 Copyright (c) Steve Scherf et al.
# Submitted via: dBpowerAMP V4.0
#
DISCID=800eac1a
DTITLE=ELVIS - Party Mega Mix
DYEAR=1900
DGENRE=Rock
TTITLE0=Way Down
TTITLE1=Heartbreak Hotel
TTITLE2=Blue Suede Shoes
TTITLE3=Don't Be Cruel
TTITLE4=Hound Dog
TTITLE5=I Want You I need You
TTITLE6=Love me Tender
TTITLE7=All Shook Up
TTITLE8=Teddy Bear
TTITLE9=Jailhouse Rock
TTITLE10=Treat Me Nice
TTITLE11=One Night
TTITLE12=Can't Help Falling in Love
TTITLE13=It's Now Or Never
TTITLE14=Are You Lonesome Tonight
TTITLE15=Surrender
TTITLE16=Suspicion
TTITLE17=In The Ghetto
TTITLE18=Suspicious Minds
TTITLE19=Don't Cry Daddy
TTITLE20=Burning Love
TTITLE21=Moody Blue
TTITLE22=Good Luck Charm
TTITLE23=She's Not You
TTITLE24=Too Much
TTITLE25=A Big Hunk Of Love
EXTD=Lindsay Tubb\n
EXTT0=
EXTT1=
EXTT2=
EXTT3=
EXTT4=
EXTT5=
EXTT6=
EXTT7=
EXTT8=
EXTT9=
EXTT10=
EXTT11=
EXTT12=
EXTT13=
EXTT14=
EXTT15=
EXTT16=
EXTT17=
EXTT18=
EXTT19=
EXTT20=
EXTT21=
EXTT22=
EXTT23=
EXTT24=
EXTT25=
PLAYORDER=
